<?xml version="1.0" standalone="no"?>
<!DOCTYPE svg PUBLIC "-//W3C//DTD SVG 20010904//EN"
 "http://www.w3.org/TR/2001/REC-SVG-20010904/DTD/svg10.dtd">
<svg version="1.0" xmlns="http://www.w3.org/2000/svg"
 width="254.000000pt" height="177.000000pt" viewBox="0 0 254.000000 177.000000"
 preserveAspectRatio="xMidYMid meet">

<g transform="translate(0.000000,177.000000) scale(0.100000,-0.100000)"
fill="#000000" stroke="none">
<path d="M1145 1739 c-16 -6 -151 -54 -300 -106 -378 -132 -733 -262 -777
-284 -63 -32 -63 -34 -63 -444 0 -420 -1 -413 79 -460 24 -14 109 -48 188 -74
182 -62 512 -181 738 -266 210 -80 253 -89 334 -74 92 16 1074 389 1126 428
14 10 34 32 46 49 20 30 21 42 22 389 0 336 -1 361 -19 400 -26 53 -32 56
-404 188 -790 280 -718 258 -835 261 -59 2 -118 -1 -135 -7z m515 -144 c146
-53 308 -112 360 -130 369 -128 403 -143 424 -183 19 -38 29 -696 11 -739 -28
-63 -52 -75 -585 -268 -496 -179 -518 -186 -590 -186 -88 0 -142 16 -435 131
-213 83 -508 190 -526 190 -29 0 -187 74 -210 99 l-26 28 3 361 c2 235 7 369
14 382 6 11 21 26 33 34 24 16 368 146 384 146 6 0 50 16 99 36 101 41 456
170 524 190 29 9 82 12 150 10 105 -3 105 -3 370 -101z"/>
<path d="M1193 1614 c-63 -14 -918 -310 -960 -332 -10 -6 -27 -20 -38 -32 -18
-19 -19 -41 -24 -273 -6 -375 -5 -416 16 -440 27 -30 102 -64 226 -103 61 -20
245 -86 407 -146 346 -129 424 -152 497 -144 63 7 998 338 1026 364 55 48 55
49 50 385 -3 185 -9 323 -15 340 -6 15 -25 35 -42 44 -42 22 -269 103 -641
230 -281 95 -318 105 -395 108 -47 2 -95 1 -107 -1z m655 -173 c255 -89 474
-169 487 -177 13 -9 28 -30 34 -47 14 -46 18 -627 4 -652 -27 -49 -71 -68
-540 -234 -532 -189 -535 -189 -663 -152 -36 10 -182 62 -325 116 -143 54
-318 117 -390 140 -167 54 -240 87 -259 117 -13 20 -14 70 -11 353 4 315 5
330 24 346 11 9 66 33 123 54 224 81 835 293 858 298 14 3 63 4 110 2 80 -3
110 -12 548 -164z"/>
<path d="M1339 1403 c-2 -104 -5 -139 -13 -155 -6 -14 -3 -18 15 -19 13 0 49
-1 79 -2 44 -2 55 1 54 13 -1 12 7 15 32 12 29 -4 34 -1 34 16 0 12 5 24 10
27 6 4 10 -7 10 -24 0 -27 4 -31 25 -31 l26 0 -3 90 -3 90 -32 0 c-24 0 -33
-5 -33 -16 0 -9 -6 -28 -14 -42 -7 -15 -17 -40 -22 -56 -12 -38 -38 -49 -28
-12 4 16 1 32 -6 42 -10 11 -10 18 -2 26 16 16 15 61 0 76 -7 7 -38 12 -70 12
l-58 0 -1 -47z m77 -41 c-12 -12 -18 8 -10 35 l8 28 4 -28 c2 -16 1 -31 -2
-35z m-6 -87 l-8 -40 -1 50 c-1 29 3 45 8 40 5 -6 6 -28 1 -50z"/>
<path d="M1105 1431 c-3 -3 -21 -4 -39 -3 -41 3 -66 -19 -66 -56 -1 -25 -1
-26 -12 -7 -42 78 -129 46 -115 -41 10 -61 32 -86 75 -82 31 3 38 7 46 36 l9
32 18 -30 c18 -29 55 -41 73 -23 4 4 34 8 67 9 34 1 63 5 66 7 2 3 -3 29 -11
58 -14 47 -14 55 -1 75 20 31 19 34 -10 34 -15 0 -25 -6 -25 -14 0 -8 -5 -18
-11 -21 -6 -4 -9 0 -7 11 2 15 -4 19 -24 20 -15 1 -30 -1 -33 -5z m-20 -61
c15 0 25 -7 29 -22 9 -35 8 -38 -19 -38 -17 0 -25 -6 -26 -17 -2 -26 -18 57
-17 87 0 16 2 19 5 8 3 -11 14 -18 28 -18z m-145 -22 c0 -5 -4 -8 -10 -8 -5 0
-10 10 -10 23 0 18 2 19 10 7 5 -8 10 -18 10 -22z m9 -66 c0 -24 -1 -25 -9 -7
-12 28 -12 47 0 40 6 -3 10 -18 9 -33z"/>
<path d="M1651 1374 c-28 -36 -34 -63 -24 -105 8 -30 14 -35 49 -41 21 -4 63
-12 92 -19 29 -6 55 -10 57 -7 2 2 5 28 6 57 2 41 7 56 25 70 13 10 20 21 17
25 -12 12 -42 6 -53 -11 -9 -16 -10 -15 -8 7 3 22 -2 26 -37 32 -22 4 -54 10
-71 14 -26 5 -35 1 -53 -22z m75 -41 c21 4 23 1 17 -22 -9 -38 -12 -41 -38
-41 -13 0 -26 -6 -28 -12 -3 -7 -6 -3 -6 9 -1 12 4 25 9 28 6 4 8 10 5 15 -3
5 -2 22 2 37 7 27 8 27 11 4 3 -18 8 -22 28 -18z"/>
<path d="M721 1374 c-23 -10 -31 -18 -22 -23 6 -4 14 -25 18 -47 3 -21 9 -44
14 -49 4 -6 11 -30 15 -53 7 -43 15 -48 60 -36 20 5 21 8 8 32 -15 30 -19 76
-5 68 5 -3 12 -21 15 -40 4 -21 14 -37 25 -41 32 -10 67 14 42 29 -5 3 -12 21
-15 40 -4 19 -13 37 -22 40 -11 4 -12 10 -5 24 7 12 6 26 -2 43 -15 30 -74 36
-126 13z m72 -36 c8 -28 -4 -47 -14 -22 -11 27 -11 44 0 44 5 0 11 -10 14 -22z"/>
<path d="M2222 1234 c-51 -36 -5 -122 50 -93 43 23 50 57 18 89 -24 24 -38 25
-68 4z"/>
<path d="M262 1224 c-24 -17 -30 -62 -10 -82 20 -20 65 -14 82 10 21 30 20 44
-4 68 -24 24 -38 25 -68 4z"/>
<path d="M1242 1220 c-7 -11 -18 -20 -24 -20 -7 0 -29 -17 -50 -37 -35 -34
-37 -38 -21 -55 18 -20 4 -25 -16 -5 -9 7 -11 7 -8 1 4 -7 0 -15 -8 -18 -19
-7 -42 43 -25 54 7 5 6 11 -4 19 -11 9 -24 4 -67 -26 -29 -21 -64 -49 -77 -62
-14 -12 -38 -28 -55 -33 -25 -9 -31 -8 -40 8 -6 10 -13 28 -14 38 -6 35 -11
29 -19 -19 -4 -32 -9 -43 -15 -34 -6 10 -9 11 -9 2 0 -7 -4 -13 -10 -13 -5 0
-10 11 -10 24 0 14 -4 28 -10 31 -5 3 -10 -2 -10 -12 0 -10 -9 -24 -20 -31
-17 -11 -20 -10 -20 7 0 35 -19 32 -26 -4 -3 -19 -10 -32 -15 -29 -5 3 -7 10
-4 15 4 5 2 9 -4 9 -5 0 -12 -8 -14 -17 -4 -17 -5 -17 -6 0 0 9 -6 17 -12 17
-6 0 -9 -7 -5 -15 3 -8 1 -15 -4 -15 -5 0 -11 8 -13 18 -3 11 -5 9 -6 -8 -1
-20 -3 -22 -11 -10 -5 8 -10 10 -10 4 0 -17 -30 -12 -30 5 0 14 -1 14 -10 1
-5 -8 -15 -15 -21 -15 -7 0 -14 -6 -16 -12 -4 -10 55 -13 271 -13 152 0 276
-4 276 -8 0 -5 -3 -12 -7 -16 -4 -3 -8 -12 -9 -19 -1 -7 -20 -65 -43 -130 -24
-66 -40 -121 -38 -124 5 -4 54 125 77 205 8 23 18 46 24 50 6 4 47 5 91 2 71
-5 77 -7 54 -17 -31 -14 -46 -63 -20 -64 9 0 36 -2 60 -5 l43 -4 -4 32 c-3 18
-8 41 -13 51 -4 10 -3 17 4 17 6 0 14 -17 17 -39 l6 -38 127 -6 c84 -3 139
-11 162 -21 l34 -16 -47 6 c-63 7 -121 -4 -114 -22 7 -19 3 -18 -24 6 -13 11
-32 19 -44 19 -19 -1 -19 -2 -2 -6 11 -3 26 -11 33 -18 16 -16 17 -39 2 -29
-7 4 -10 1 -7 -7 3 -8 20 -17 39 -20 19 -4 27 -7 19 -8 -8 -1 -25 -4 -38 -7
-18 -5 -25 0 -37 30 -13 31 -20 36 -50 36 -37 0 -55 -20 -55 -61 0 -17 -4 -20
-22 -15 -65 18 -71 19 -64 8 7 -12 -3 -42 -15 -42 -4 0 -6 29 -3 65 4 50 2 65
-8 65 -7 0 -22 11 -32 25 -26 35 -36 31 -36 -15 0 -39 1 -40 26 -34 25 6 26 5
20 -19 -4 -16 -1 -27 7 -31 9 -5 9 -7 0 -12 -7 -3 -13 -10 -13 -15 0 -22 79
-93 134 -120 61 -30 61 -30 77 -10 16 19 17 46 5 99 -7 32 8 19 28 -23 15 -32
16 -39 3 -65 l-15 -29 54 -7 c71 -8 138 2 159 26 19 21 13 56 -7 44 -6 -4 -3
5 8 19 10 15 22 27 26 27 19 1 35 57 29 105 l-6 50 -85 19 c-76 17 -99 28
-100 47 0 4 20 4 44 2 39 -5 95 11 83 24 -6 5 -141 25 -169 25 -10 -1 -20 3
-23 8 -8 12 33 33 51 26 18 -7 17 2 -1 34 -10 18 -14 20 -15 8 0 -20 -20 -28
-42 -17 -15 8 -15 11 6 34 29 31 39 31 56 0 7 -14 22 -25 33 -25 10 0 32 -11
49 -25 l30 -25 251 0 c218 1 250 3 234 15 -11 7 -25 11 -33 8 -8 -3 -14 0 -14
6 0 15 -37 14 -43 -1 -3 -8 -6 -6 -6 5 -1 9 -8 17 -16 17 -8 0 -15 6 -15 13 0
6 -5 4 -11 -5 -14 -25 -28 -22 -55 10 -13 15 -24 21 -24 15 0 -7 -7 -13 -15
-13 -8 0 -15 6 -15 13 -1 8 -4 7 -13 -3 -18 -23 -37 -23 -37 0 0 25 -9 25 -26
3 -10 -15 -10 -21 3 -35 14 -16 14 -18 -2 -24 -21 -8 -55 27 -55 55 0 28 -12
33 -32 14 -17 -15 -21 -15 -46 -1 -17 9 -36 12 -52 8 l-25 -7 27 -11 c43 -18
40 -30 -5 -18 -57 15 -99 44 -93 65 3 9 -4 27 -14 40 -16 18 -23 21 -34 12
-12 -10 -12 -16 -1 -37 11 -23 11 -28 -6 -45 -23 -23 -28 -23 -51 -2 -20 18
-25 4 -6 -15 18 -18 3 -14 -37 9 l-36 22 4 78 c5 81 1 93 -21 59z m341 -424
c7 -17 -13 -26 -59 -26 -27 0 -34 4 -34 20 0 17 7 20 44 20 29 0 46 -5 49 -14z
m57 -36 c0 -5 -4 -10 -10 -10 -5 0 -10 5 -10 10 0 6 5 10 10 10 6 0 10 -4 10
-10z m-303 -76 c-3 -3 -12 -4 -19 -1 -8 3 -5 6 6 6 11 1 17 -2 13 -5z m0 -22
c9 -6 7 -11 -7 -19 -14 -10 -19 -9 -23 1 -9 23 7 32 30 18z m8 -42 c-3 -5 -11
-10 -16 -10 -6 0 -7 5 -4 10 3 6 11 10 16 10 6 0 7 -4 4 -10z"/>
<path d="M1290 1122 c0 -5 7 -15 15 -22 8 -7 15 -8 15 -2 0 5 -7 15 -15 22 -8
7 -15 8 -15 2z"/>
<path d="M615 944 c-8 -9 -15 -11 -15 -5 0 6 -13 11 -30 11 -30 0 -30 -1 -30
-54 0 -61 19 -79 51 -50 11 10 19 12 19 7 0 -20 34 -25 47 -7 18 24 17 27 -12
57 -18 17 -22 27 -14 32 6 4 15 1 20 -6 7 -11 9 -11 9 2 0 24 -27 31 -45 13z
m-35 -14 c0 -5 6 -10 14 -10 8 0 17 -9 21 -19 3 -11 12 -22 20 -25 20 -7 19
-26 0 -26 -8 0 -15 7 -15 15 0 8 -4 15 -9 15 -5 0 -16 -7 -25 -15 -20 -20 -26
-19 -26 5 0 11 5 20 10 20 6 0 10 5 10 11 0 5 -4 7 -10 4 -5 -3 -10 3 -10 14
0 12 5 21 10 21 6 0 10 -4 10 -10z"/>
<path d="M715 950 c-27 -4 -40 -8 -27 -8 20 -2 22 -7 22 -57 0 -30 5 -55 10
-55 6 0 10 25 10 55 0 48 2 55 20 55 11 0 20 5 20 10 0 6 -1 9 -2 8 -2 0 -25
-4 -53 -8z"/>
<path d="M1811 923 c0 -11 3 -13 6 -5 2 6 9 10 13 7 5 -3 0 -21 -11 -40 l-21
-35 29 1 c16 1 21 3 11 6 -22 5 -23 22 -3 29 23 9 19 54 -5 54 -13 0 -20 -6
-19 -17z"/>
<path d="M1871 918 c-9 -25 0 -60 17 -66 19 -6 35 38 23 64 -13 30 -29 31 -40
2z m29 -23 c0 -19 -4 -35 -10 -35 -5 0 -10 16 -10 35 0 19 5 35 10 35 6 0 10
-16 10 -35z"/>
<path d="M1930 895 c0 -25 5 -45 10 -45 6 0 10 20 10 45 0 25 -4 45 -10 45 -5
0 -10 -20 -10 -45z"/>
<path d="M1970 920 c0 -11 7 -20 15 -20 8 0 15 -9 15 -20 0 -21 -15 -27 -23
-10 -3 6 -4 5 -3 -2 4 -20 33 -21 40 -2 4 9 0 24 -9 34 -17 19 -20 34 -5 25 6
-3 10 -1 10 4 0 6 -9 11 -20 11 -13 0 -20 -7 -20 -20z"/>
<path d="M1253 803 c9 -2 23 -2 30 0 6 3 -1 5 -18 5 -16 0 -22 -2 -12 -5z"/>
<path d="M250 630 c-24 -24 -25 -38 -4 -68 17 -24 62 -30 82 -10 18 18 14 63
-6 81 -25 22 -48 21 -72 -3z"/>
<path d="M2210 630 c-11 -11 -20 -28 -20 -38 0 -41 69 -69 98 -40 18 18 14 63
-6 81 -25 22 -48 21 -72 -3z"/>
<path d="M822 573 c-28 -11 -62 -82 -62 -128 0 -101 97 -117 139 -23 17 37 20
62 13 115 -5 33 -52 52 -90 36z m29 -80 c-9 -16 -10 -16 -11 4 0 12 3 30 7 40
7 16 8 16 11 -4 2 -12 -1 -30 -7 -40z m-15 -68 c-4 -19 -11 -33 -17 -30 -8 6
-3 48 8 68 10 18 15 -4 9 -38z"/>
<path d="M1659 560 c-16 -9 -49 -18 -77 -19 -7 -1 -11 -5 -8 -9 2 -4 -10 -6
-28 -4 l-33 4 7 -49 c5 -26 11 -60 15 -75 4 -17 3 -28 -3 -28 -6 0 -14 15 -17
33 -4 17 -11 37 -16 43 -5 6 -10 23 -11 38 -2 22 -7 26 -34 26 -26 0 -32 -4
-33 -22 -1 -40 -18 -134 -20 -110 -1 29 -41 32 -41 2 0 -11 -4 -20 -10 -20 -5
0 -8 30 -7 70 l2 70 -30 0 -30 0 3 -77 c2 -58 0 -75 -9 -66 -6 6 -11 38 -11
72 0 34 -3 63 -6 65 -4 2 -50 7 -102 11 -52 4 -117 11 -144 16 -80 15 -81 14
-79 -33 1 -24 2 -62 2 -84 1 -31 6 -43 19 -46 24 -7 42 1 42 19 0 8 6 27 14
41 8 15 19 40 25 56 18 44 22 26 13 -52 l-8 -71 26 -6 c14 -3 39 -6 55 -6 17
0 71 -1 120 -3 50 -1 117 -1 151 2 58 4 60 6 56 28 -5 29 14 32 23 4 4 -12 15
-20 28 -19 39 1 155 24 163 32 4 4 24 7 45 7 21 0 45 7 53 16 31 30 14 117
-28 146 -15 11 -58 9 -77 -2z m1 -80 c15 -68 15 -73 3 -77 -10 -4 -33 82 -33
118 0 40 18 16 30 -41z m53 40 c3 -11 1 -18 -4 -14 -5 3 -9 12 -9 20 0 20 7
17 13 -6z m-716 -22 c-3 -8 -6 -5 -6 6 -1 11 2 17 5 13 3 -3 4 -12 1 -19z
m133 -29 c0 -11 -4 -17 -10 -14 -5 3 -10 15 -10 26 0 11 5 17 10 14 6 -3 10
-15 10 -26z m30 -34 c0 -28 -4 -35 -20 -35 -11 0 -20 -7 -20 -15 0 -8 -4 -15
-10 -15 -5 0 -10 12 -10 26 0 17 6 28 20 31 11 3 20 14 20 24 0 11 5 19 10 19
6 0 10 -16 10 -35z m567 3 c-3 -7 -5 -2 -5 12 0 14 2 19 5 13 2 -7 2 -19 0
-25z m-510 -70 c-3 -7 -5 -2 -5 12 0 14 2 19 5 13 2 -7 2 -19 0 -25z"/>
</g>
</svg>
